<svg width="126" height="126" viewBox="0 0 126 126" fill="none" xmlns="http://www.w3.org/2000/svg">
<path d="M48.1707 79.0287C51.4717 79.0329 54.6953 80.0294 57.4227 81.889C59.8288 83.5297 61.7499 85.7758 62.9998 88.391C64.2497 85.7758 66.1708 83.5297 68.577 81.889C71.3045 80.0293 74.5287 79.0328 77.8299 79.0287L77.9891 79.0365C78.357 79.073 78.7028 79.2357 78.9666 79.4994C79.2681 79.8008 79.4373 80.2098 79.4373 80.6361V80.6371C79.4318 84.7965 77.852 88.7999 75.0145 91.8412C72.283 94.7688 68.5811 96.5944 64.6072 96.9886V104.815C69.5399 105.086 74.3214 106.631 78.4842 109.301L78.6131 109.393C78.7367 109.491 78.8451 109.607 78.9354 109.737C79.0557 109.91 79.1414 110.105 79.1863 110.311C79.2312 110.517 79.2345 110.731 79.1971 110.939C79.1596 111.146 79.0816 111.344 78.9676 111.522C78.8536 111.699 78.7062 111.853 78.533 111.973C78.3597 112.093 78.164 112.179 77.9578 112.224C77.7517 112.269 77.5385 112.273 77.3309 112.236C77.1233 112.198 76.9253 112.119 76.7479 112.005V112.006C72.6439 109.379 67.8726 107.983 62.9998 107.983C58.1273 107.983 53.3565 109.378 49.2527 112.005C48.8942 112.236 48.4592 112.315 48.0428 112.224C47.6262 112.133 47.2625 111.881 47.032 111.522C46.8017 111.163 46.7236 110.727 46.8143 110.311C46.905 109.895 47.1571 109.531 47.5154 109.301H47.5164C51.6791 106.631 56.4599 105.086 61.3924 104.815V96.9886C57.4187 96.5943 53.7176 94.7687 50.9861 91.8412C48.1485 88.7998 46.5678 84.7966 46.5623 80.6371V80.6361C46.5623 80.2098 46.7316 79.8008 47.033 79.4994C47.3345 79.1979 47.7434 79.0287 48.1697 79.0287H48.1707ZM49.8904 82.3568C50.2726 85.2372 51.5925 87.9182 53.6551 89.9808C55.7174 92.0431 58.3982 93.3621 61.2781 93.7445C60.8957 90.8646 59.5768 88.1838 57.5145 86.1215C55.4519 84.0589 52.7708 82.739 49.8904 82.3568ZM76.1092 82.3568C73.2289 82.7391 70.5477 84.0589 68.4852 86.1215C66.4229 88.1838 65.1029 90.8645 64.7205 93.7445C67.601 93.3623 70.2829 92.0435 72.3455 89.9808C74.4079 87.9183 75.727 85.237 76.1092 82.3568Z" fill="white" stroke="white"/>
<path d="M56.5513 26.7819C59.6302 25.5066 63.019 25.1738 66.2876 25.8239C69.556 26.4741 72.5581 28.0788 74.9146 30.4352C77.271 32.7917 78.8757 35.7938 79.5259 39.0622C80.176 42.3307 79.8422 45.7187 78.5669 48.7975C77.2916 51.8764 75.1326 54.5085 72.3618 56.36C69.591 58.2115 66.3329 59.1998 63.0005 59.1999H62.9995C58.5323 59.1948 54.2491 57.4182 51.0903 54.2595C47.9315 51.1007 46.155 46.8175 46.1499 42.3503V42.3493L46.1616 41.7263C46.2769 38.612 47.2539 35.5859 48.9897 32.988C50.8412 30.2172 53.4725 28.0572 56.5513 26.7819ZM62.6616 28.7194C59.1694 28.81 55.8391 30.2363 53.3628 32.7126C50.8065 35.2689 49.3689 38.7351 49.3647 42.3503L49.3745 42.8542C49.4678 45.3743 50.2579 47.8232 51.6626 49.9255C53.1608 52.1676 55.2904 53.915 57.7817 54.947C60.2731 55.9789 63.0148 56.2493 65.6597 55.7233C68.3045 55.1973 70.7342 53.8986 72.6411 51.9919C74.548 50.0851 75.8474 47.6553 76.3735 45.0104C76.8997 42.3655 76.6292 39.623 75.5972 37.1315C74.5652 34.6402 72.8178 32.5106 70.5757 31.0124C68.3335 29.5142 65.6971 28.7146 63.0005 28.7145L62.6616 28.7194Z" fill="white" stroke="white"/>
<path d="M77.4429 55.1853C77.654 55.1853 77.8632 55.2266 78.0582 55.3074C78.2532 55.3881 78.4304 55.5068 78.5797 55.656L81.1109 58.1873C81.2601 58.3365 81.3788 58.5138 81.4595 58.7087C81.5403 58.9037 81.5816 59.1129 81.5816 59.324C81.5816 59.535 81.5403 59.7442 81.4595 59.9392C81.3787 60.1342 81.2602 60.3114 81.1109 60.4607C80.9617 60.6099 80.7844 60.7286 80.5894 60.8093C80.3944 60.8901 80.1852 60.9314 79.9742 60.9314C79.7632 60.9314 79.5539 60.8901 79.3589 60.8093C79.164 60.7285 78.9867 60.6099 78.8375 60.4607L76.3062 57.9294C76.157 57.7802 76.0384 57.603 75.9576 57.408C75.8768 57.2129 75.8355 57.0038 75.8355 56.7927C75.8355 56.5816 75.8768 56.3725 75.9576 56.1775C76.0384 55.9825 76.1569 55.8053 76.3062 55.656C76.4555 55.5067 76.6327 55.3882 76.8277 55.3074C77.0227 55.2266 77.2319 55.1853 77.4429 55.1853Z" fill="white" stroke="white"/>
<path d="M46.0255 23.7678C46.4518 23.7678 46.8607 23.9371 47.1622 24.2385L49.6935 26.7698C49.8426 26.919 49.9613 27.0963 50.0421 27.2913C50.1228 27.4862 50.1641 27.6955 50.1642 27.9065C50.1642 28.1175 50.1228 28.3267 50.0421 28.5217C49.9613 28.7168 49.8427 28.8939 49.6935 29.0432C49.5442 29.1925 49.367 29.3111 49.172 29.3918C48.977 29.4726 48.7678 29.5139 48.5567 29.5139C48.3457 29.5139 48.1364 29.4726 47.9415 29.3918C47.7466 29.3111 47.5692 29.1924 47.42 29.0432L44.8888 26.512C44.5873 26.2105 44.4181 25.8015 44.4181 25.3752C44.4181 24.9489 44.5873 24.54 44.8888 24.2385C45.1902 23.9371 45.5992 23.7678 46.0255 23.7678Z" fill="white" stroke="white"/>
<path d="M79.9742 23.7678C80.4004 23.7678 80.8095 23.9372 81.1109 24.2385C81.4123 24.54 81.5816 24.9489 81.5816 25.3752C81.5816 25.8016 81.4124 26.2105 81.1109 26.512L78.5797 29.0432C78.2782 29.3447 77.8693 29.5139 77.4429 29.5139C77.0166 29.5139 76.6077 29.3447 76.3062 29.0432C76.0049 28.7418 75.8355 28.3327 75.8355 27.9065C75.8356 27.4803 76.0048 27.0712 76.3062 26.7698L78.8375 24.2385C79.1389 23.9371 79.548 23.7679 79.9742 23.7678Z" fill="white" stroke="white"/>
<path d="M48.5567 55.1854C48.983 55.1854 49.392 55.3548 49.6935 55.6561C49.8427 55.8054 49.9613 55.9826 50.0421 56.1776C50.1229 56.3726 50.1642 56.5817 50.1642 56.7928C50.1641 57.0039 50.1229 57.2131 50.0421 57.4081C49.9613 57.6031 49.8427 57.7803 49.6935 57.9296L47.1622 60.4608C46.8607 60.7623 46.4518 60.9315 46.0255 60.9315C45.5992 60.9315 45.1902 60.7623 44.8888 60.4608C44.5873 60.1594 44.4181 59.7504 44.4181 59.3241C44.4181 58.8978 44.5873 58.4888 44.8888 58.1874L47.42 55.6561L47.5382 55.5497C47.8242 55.3153 48.1837 55.1855 48.5567 55.1854Z" fill="white" stroke="white"/>
<path d="M90.0027 40.7422C90.4289 40.7422 90.838 40.9117 91.1394 41.213C91.4409 41.5144 91.6101 41.9234 91.6101 42.3497C91.6101 42.776 91.4409 43.1849 91.1394 43.4864C90.838 43.7877 90.4289 43.9571 90.0027 43.9571H83.4255C82.9992 43.9571 82.5903 43.7878 82.2888 43.4864C81.9874 43.1849 81.8181 42.776 81.8181 42.3497C81.8181 41.9234 81.9874 41.5144 82.2888 41.213C82.5903 40.9115 82.9992 40.7422 83.4255 40.7422H90.0027Z" fill="white" stroke="white"/>
<path d="M42.574 40.7422C43.0002 40.7422 43.4093 40.9117 43.7107 41.213C44.0122 41.5144 44.1814 41.9234 44.1814 42.3497C44.1814 42.776 44.0122 43.1849 43.7107 43.4864C43.4093 43.7877 43.0002 43.9571 42.574 43.9571H35.9969C35.5705 43.9571 35.1616 43.7878 34.8601 43.4864C34.5587 43.1849 34.3894 42.776 34.3894 42.3497C34.3894 41.9234 34.5587 41.5144 34.8601 41.213C35.1616 40.9115 35.5705 40.7422 35.9969 40.7422H42.574Z" fill="white" stroke="white"/>
<path d="M63 61.1678C63.4263 61.1678 63.8353 61.337 64.1367 61.6385C64.4382 61.9399 64.6074 62.3489 64.6074 62.7752V69.3524C64.6074 69.7786 64.438 70.1876 64.1367 70.4891C63.8353 70.7905 63.4263 70.9598 63 70.9598C62.5737 70.9598 62.1647 70.7905 61.8633 70.4891C61.562 70.1876 61.3926 69.7786 61.3926 69.3524V62.7752C61.3926 62.3489 61.5618 61.9399 61.8633 61.6385C62.1647 61.337 62.5737 61.1678 63 61.1678Z" fill="white" stroke="white"/>
<path d="M63 13.739C63.4263 13.739 63.8353 13.9083 64.1367 14.2097C64.4382 14.5112 64.6074 14.9201 64.6074 15.3464V21.9246C64.6073 22.3506 64.4379 22.759 64.1367 23.0603C63.8353 23.3618 63.4263 23.532 63 23.532C62.7889 23.532 62.5798 23.4897 62.3848 23.4089C62.1898 23.3281 62.0125 23.2095 61.8633 23.0603C61.7141 22.9111 61.5954 22.7338 61.5146 22.5388C61.434 22.3439 61.3926 22.1345 61.3926 21.9236V15.3464C61.3926 14.9201 61.5618 14.5112 61.8633 14.2097C62.1647 13.9083 62.5737 13.739 63 13.739Z" fill="white" stroke="white"/>
</svg>
